<?xml version="1.0" encoding="utf-8"?>
<!-- Generator: Adobe Illustrator 16.0.0, SVG Export Plug-In . SVG Version: 6.00 Build 0)  -->
<!DOCTYPE svg PUBLIC "-//W3C//DTD SVG 1.1//EN" "http://www.w3.org/Graphics/SVG/1.1/DTD/svg11.dtd">
<svg version="1.1" id="Layer_1" xmlns="http://www.w3.org/2000/svg" xmlns:xlink="http://www.w3.org/1999/xlink" x="0px" y="0px"
	 width="60px" height="85px" viewBox="104.5 -14.5 60 85" enable-background="new 104.5 -14.5 60 85" xml:space="preserve">
<g>
	<path fill="#EF305E" d="M145.363,15.781l7.463,23.236c0.408,1.268-0.538,2.564-1.869,2.564h-5.487
		c-0.855,0-1.611-0.555-1.871-1.369l-7.378-23.238c-0.401-1.266,0.543-2.557,1.871-2.557h5.402
		C144.347,14.418,145.103,14.969,145.363,15.781z"/>
	<g>
		<path fill="#FFFFFF" d="M138.216,32.967l-5.262-16.855c-0.314-1.007-1.247-1.693-2.301-1.693c-1.284,0-2.343,1.006-2.408,2.289
			l-0.642,12.6c-0.023,0.447,0.031,0.896,0.16,1.324l2.856,9.551c0.249,0.83,1.014,1.4,1.881,1.4h2.654
			c0.855,0,1.611-0.553,1.871-1.367l1.181-3.703C138.572,35.359,138.577,34.123,138.216,32.967z"/>
		
			<linearGradient id="SVGID_1_" gradientUnits="userSpaceOnUse" x1="409.9414" y1="-374.2617" x2="415.5844" y2="-375.7338" gradientTransform="matrix(1 0 0 -1 -280.5898 -346.8496)">
			<stop  offset="0" style="stop-color:#000000;stop-opacity:0.25"/>
			<stop  offset="0.9115" style="stop-color:#FFFFFF;stop-opacity:0"/>
		</linearGradient>
		<path fill="url(#SVGID_1_)" d="M138.216,32.967l-5.262-16.855c-0.314-1.007-1.247-1.693-2.301-1.693
			c-1.284,0-2.343,1.006-2.408,2.289l-0.642,12.6c-0.023,0.447,0.031,0.896,0.16,1.324l2.856,9.551c0.249,0.83,1.014,1.4,1.881,1.4
			h2.654c0.855,0,1.611-0.553,1.871-1.367l1.181-3.703C138.572,35.359,138.577,34.123,138.216,32.967z"/>
	</g>
	<path fill="#EF305E" d="M125.344,14.319h5.405c1.324,0,2.268,1.283,1.874,2.547l-7.303,23.436c-0.255,0.82-1.015,1.379-1.874,1.379
		h-5.405c-1.324,0-2.268-1.283-1.874-2.547l7.302-23.436C123.726,14.878,124.485,14.319,125.344,14.319z"/>
</g>
</svg>
